<?xml version="1.0" encoding="UTF-8" standalone="no"?>
<!-- Created with Inkscape (http://www.inkscape.org/) -->

<svg
   width="3.375in"
   height="2.125in"
   viewBox="0 0 3.375 2.125"
   version="1.1"
   id="svg5"
   xml:space="preserve"
   inkscape:version="1.2.2 (732a01da63, 2022-12-09)"
   sodipodi:docname="empty_card.svg"
   inkscape:export-filename="cardface.png"
   inkscape:export-xdpi="360"
   inkscape:export-ydpi="360"
   xmlns:inkscape="http://www.inkscape.org/namespaces/inkscape"
   xmlns:sodipodi="http://sodipodi.sourceforge.net/DTD/sodipodi-0.dtd"
   xmlns="http://www.w3.org/2000/svg"
   xmlns:svg="http://www.w3.org/2000/svg"><sodipodi:namedview
     id="namedview7"
     pagecolor="#ffffff"
     bordercolor="#000000"
     borderopacity="0.25"
     inkscape:showpageshadow="2"
     inkscape:pageopacity="0.0"
     inkscape:pagecheckerboard="0"
     inkscape:deskcolor="#d1d1d1"
     inkscape:document-units="in"
     showgrid="true"
     inkscape:zoom="1.829812"
     inkscape:cx="154.93395"
     inkscape:cy="43.173834"
     inkscape:window-width="2560"
     inkscape:window-height="1369"
     inkscape:window-x="-8"
     inkscape:window-y="-8"
     inkscape:window-maximized="1"
     inkscape:current-layer="layer1"><inkscape:grid
       type="xygrid"
       id="grid132" /></sodipodi:namedview><defs
     id="defs2"><filter
       id="blur1"
       x="-0.29464952"
       y="-0.3147541"
       width="1.589299"
       height="1.6295082"><feFlood
         flood-opacity="0"
         result="BackgroundImageFix"
         id="feFlood1517" /><feBlend
         mode="normal"
         in="SourceGraphic"
         in2="BackgroundImageFix"
         result="shape"
         id="feBlend1519" /><feGaussianBlur
         stdDeviation="592"
         result="effect1_foregroundBlur"
         id="feGaussianBlur1521" /></filter></defs><g
     inkscape:label="Layer 1"
     inkscape:groupmode="layer"
     id="layer1"><g
       id="g1557"
       transform="scale(0.00100028,0.00106845)"><rect
         width="3384.469"
         height="1998.6117"
         fill="#9b80ff"
         id="rect1526"
         x="0"
         y="0"
         style="stroke-width:0.971165" /><g
         filter="url(#blur1)"
         id="g1540"><circle
           cx="583"
           cy="1037"
           fill="#ffe680"
           r="1316"
           id="circle1528" /><circle
           cx="564"
           cy="2039"
           fill="#9b80ff"
           r="1316"
           id="circle1530" /><circle
           cx="1483"
           cy="906"
           fill="#ffe680"
           r="1316"
           id="circle1532" /><circle
           cx="2754"
           cy="1482"
           fill="#ffe680"
           r="1316"
           id="circle1534" /><circle
           cx="1314"
           cy="2038"
           fill="#9b80ff"
           r="1316"
           id="circle1536" /><circle
           cx="1310"
           cy="157"
           fill="#ffe680"
           r="1316"
           id="circle1538" /></g></g><path
       id="path411"
       style="fill:#ffffff;fill-opacity:1;stroke-width:0.00416453"
       d="m 2.066113,0.15625 2.034e-4,0.0875036 0.1734048,0.001616 c 0.034348,0.0209499 0.023513,0.0552312 0,0.0675591 l -0.065444,9.9213e-4 -1.385e-4,-1.5421e-4 c -4.037e-4,8.0363e-4 -0.034602,0.088919 -0.034602,0.088919 l 0.068194,0.0830788 0.1239186,2.0334e-4 -0.092871,-0.10152615 0.014258,0.0155358 C 2.3657846,0.38196973 2.3995223,0.19988756 2.2477637,0.15625 Z m 0.3956286,0 v 0.24478707 h 3.336e-4 l 0.095995,0.0869017 0.1092454,2.8479e-4 0.093872,-0.0864708 h 2.278e-4 V 0.15697387 h -0.09724 V 0.40146812 L 2.5131877,0.4010364 h 0.045802 V 0.15625 Z m 0.4164512,0 0.1249353,0.16658045 -0.1249353,0.16658044 h 0.1041129 l 0.072879,-0.0971746 0.072879,0.0971746 H 3.2321769 L 3.107241,0.32283045 3.2321764,0.15625 H 3.1280635 L 3.0551848,0.25342465 2.9823061,0.15625 Z m -1.1112903,9.751e-5 -0.096841,0.0885364 3.987e-4,0.15730785 0.09658,0.0871862 V 0.4892393 H 1.9400796 V 0.39962957 H 1.7670002 Z m 8.19e-5,1.6281e-4 v 0.0896182 h 0.1731119 v -0.0896182 z" /><g
       id="g17696"
       transform="matrix(4.9016809e-4,0,0,4.9016809e-4,2.7393907,1.5987962)"><path
         id="XMLID_1775_"
         inkscape:connector-curvature="0"
         d="m 181.1,774.3 v -51.5 c 0,-19.7 -12,-32.6 -32.6,-32.6 -10.3,0 -21.5,3.4 -29.2,14.6 -6,-9.4 -14.6,-14.6 -27.5,-14.6 -8.6,0 -17.2,2.6 -24,12 v -10.3 h -18 v 82.4 h 18 v -45.5 c 0,-14.6 7.7,-21.5 19.7,-21.5 12,0 18,7.7 18,21.5 v 45.5 h 18 v -45.5 c 0,-14.6 8.6,-21.5 19.7,-21.5 12,0 18,7.7 18,21.5 v 45.5 z m 267,-82.4 H 418.9 V 667 h -18 v 24.9 h -16.3 v 16.3 h 16.3 V 746 c 0,18.9 7.7,30 28.3,30 7.7,0 16.3,-2.6 22.3,-6 l -5.2,-15.5 c -5.2,3.4 -11.2,4.3 -15.5,4.3 -8.6,0 -12,-5.2 -12,-13.7 V 708.2 H 448 v -16.3 z m 152.8,-1.8 c -10.3,0 -17.2,5.2 -21.5,12 v -10.3 h -18 v 82.4 h 18 v -46.4 c 0,-13.7 6,-21.5 17.2,-21.5 3.4,0 7.7,0.9 11.2,1.7 l 5.2,-17.2 c -3.6,-0.7 -8.7,-0.7 -12.1,-0.7 z M 370,698.7 c -8.6,-6 -20.6,-8.6 -33.5,-8.6 -20.6,0 -34.3,10.3 -34.3,26.6 0,13.7 10.3,21.5 28.3,24 l 8.6,0.9 c 9.4,1.7 14.6,4.3 14.6,8.6 0,6 -6.9,10.3 -18.9,10.3 -12,0 -21.5,-4.3 -27.5,-8.6 l -8.6,13.7 c 9.4,6.9 22.3,10.3 35.2,10.3 24,0 37.8,-11.2 37.8,-26.6 0,-14.6 -11.2,-22.3 -28.3,-24.9 l -8.6,-0.9 c -7.7,-0.9 -13.7,-2.6 -13.7,-7.7 0,-6 6,-9.4 15.5,-9.4 10.3,0 20.6,4.3 25.8,6.9 z m 478.9,-8.6 c -10.3,0 -17.2,5.2 -21.5,12 v -10.3 h -18 v 82.4 h 18 v -46.4 c 0,-13.7 6,-21.5 17.2,-21.5 3.4,0 7.7,0.9 11.2,1.7 l 5.2,-17 c -3.5,-0.9 -8.6,-0.9 -12.1,-0.9 z m -230,43 c 0,24.9 17.2,42.9 43.8,42.9 12,0 20.6,-2.6 29.2,-9.4 L 683.3,752 c -6.9,5.2 -13.7,7.7 -21.5,7.7 -14.6,0 -24.9,-10.3 -24.9,-26.6 0,-15.5 10.3,-25.8 24.9,-26.6 7.7,0 14.6,2.6 21.5,7.7 l 8.6,-14.6 c -8.6,-6.9 -17.2,-9.4 -29.2,-9.4 -26.6,-0.1 -43.8,18 -43.8,42.9 z m 166.5,0 v -41.2 h -18 v 10.3 c -6,-7.7 -14.6,-12 -25.8,-12 -23.2,0 -41.2,18 -41.2,42.9 0,24.9 18,42.9 41.2,42.9 12,0 20.6,-4.3 25.8,-12 v 10.3 h 18 z m -66.1,0 c 0,-14.6 9.4,-26.6 24.9,-26.6 14.6,0 24.9,11.2 24.9,26.6 0,14.6 -10.3,26.6 -24.9,26.6 -15.4,-0.9 -24.9,-12.1 -24.9,-26.6 z m -215.4,-43 c -24,0 -41.2,17.2 -41.2,42.9 0,25.8 17.2,42.9 42.1,42.9 12,0 24,-3.4 33.5,-11.2 l -8.6,-12.9 c -6.9,5.2 -15.5,8.6 -24,8.6 -11.2,0 -22.3,-5.2 -24.9,-19.7 h 60.9 c 0,-2.6 0,-4.3 0,-6.9 0.8,-26.5 -14.7,-43.7 -37.8,-43.7 z m 0,15.5 c 11.2,0 18.9,6.9 20.6,19.7 h -42.9 c 1.7,-11.1 9.4,-19.7 22.3,-19.7 z m 447.2,27.5 v -73.8 h -18 v 42.9 c -6,-7.7 -14.6,-12 -25.8,-12 -23.2,0 -41.2,18 -41.2,42.9 0,24.9 18,42.9 41.2,42.9 12,0 20.6,-4.3 25.8,-12 v 10.3 h 18 z m -66.1,0 c 0,-14.6 9.4,-26.6 24.9,-26.6 14.6,0 24.9,11.2 24.9,26.6 0,14.6 -10.3,26.6 -24.9,26.6 C 894.4,758.8 885,747.6 885,733.1 Z m -602.6,0 v -41.2 h -18 v 10.3 c -6,-7.7 -14.6,-12 -25.8,-12 -23.2,0 -41.2,18 -41.2,42.9 0,24.9 18,42.9 41.2,42.9 12,0 20.6,-4.3 25.8,-12 v 10.3 h 18 z m -66.9,0 c 0,-14.6 9.4,-26.6 24.9,-26.6 14.6,0 24.9,11.2 24.9,26.6 0,14.6 -10.3,26.6 -24.9,26.6 -15.5,-0.9 -24.9,-12.1 -24.9,-26.6 z"
         style="fill:#ffffff;fill-opacity:1" /><g
         id="g16405">
	<rect
   id="rect19"
   x="364"
   y="66.099998"
   fill="#ff5a00"
   width="270.39999"
   height="485.79999" />
	<path
   id="XMLID_330_"
   inkscape:connector-curvature="0"
   fill="#eb001b"
   d="M 382,309 C 382,210.3 428.4,122.7 499.6,66.1 447.2,24.9 381.1,0 309,0 138.2,0 0,138.2 0,309 0,479.8 138.2,618 309,618 381.1,618 447.2,593.1 499.6,551.9 428.3,496.1 382,407.7 382,309 Z" />
	<path
   id="path22"
   inkscape:connector-curvature="0"
   fill="#f79e1b"
   d="M 999.2,309 C 999.2,479.8 861,618 690.2,618 618.1,618 552,593.1 499.6,551.9 571.7,495.2 617.2,407.7 617.2,309 617.2,210.3 570.8,122.7 499.6,66.1 551.9,24.9 618,0 690.1,0 861,0 999.2,139.1 999.2,309 Z" />
</g></g></g></svg>
